<?xml version="1.0" standalone="no"?>
<!DOCTYPE svg PUBLIC "-//W3C//DTD SVG 20010904//EN"
 "http://www.w3.org/TR/2001/REC-SVG-20010904/DTD/svg10.dtd">
<svg version="1.0" xmlns="http://www.w3.org/2000/svg"
 width="2308.000000pt" height="1632.000000pt" viewBox="0 0 2308.000000 1632.000000"
 preserveAspectRatio="xMidYMid meet">

<g transform="translate(0.000000,1632.000000) scale(0.100000,-0.100000)"
fill="#000000" stroke="none">
<path d="M0 8160 l0 -8160 11540 0 11540 0 0 8160 0 8160 -11540 0 -11540 0 0
-8160z m1222 7143 c65 -30 133 -95 165 -162 37 -75 40 -200 6 -273 -30 -66
-92 -129 -160 -164 -49 -25 -69 -29 -138 -29 -66 0 -90 5 -136 26 -225 106
-263 403 -72 553 30 24 76 51 102 60 62 21 171 16 233 -11z m595 -126 c41 -22
55 -47 55 -103 0 -91 -49 -125 -194 -133 -15 -1 -18 -11 -18 -71 l0 -70 -35 0
-35 0 0 193 c0 107 3 197 8 201 13 15 185 1 219 -17z m1133 8 c6 -8 10 -22 8
-32 -5 -26 -71 -26 -76 0 -5 23 15 47 38 47 10 0 23 -7 30 -15z m-190 -65 c0
-28 2 -30 40 -30 36 0 40 -2 40 -25 0 -22 -4 -25 -40 -25 l-40 0 0 -90 c0 -76
3 -91 18 -99 10 -6 28 -7 40 -4 18 4 22 1 22 -20 0 -44 -89 -46 -127 -2 -20
23 -23 37 -23 121 0 77 -3 94 -15 94 -9 0 -15 9 -15 25 0 16 6 25 15 25 9 0
15 9 15 23 0 31 7 37 42 37 24 0 28 -4 28 -30z m-432 -65 c20 -24 22 -36 22
-141 l0 -114 -29 0 c-17 0 -31 6 -35 16 -6 15 -8 15 -26 -1 -30 -27 -104 -26
-132 2 -28 28 -29 84 -4 112 21 23 74 41 124 41 27 0 32 4 32 24 0 13 -7 29
-15 36 -18 15 -86 15 -114 1 -27 -15 -31 -14 -31 8 0 26 25 44 73 51 59 8 108
-5 135 -35z m290 21 c7 -4 12 -16 12 -27 0 -18 -4 -20 -32 -13 -91 22 -133 -7
-133 -91 0 -43 5 -59 22 -76 23 -24 67 -30 116 -16 24 7 27 5 27 -17 0 -26 -8
-30 -71 -41 -46 -9 -120 22 -144 59 -42 63 -24 175 34 213 45 29 129 34 169 9z
m611 0 c6 -4 11 -16 11 -27 0 -16 -4 -19 -22 -14 -11 4 -39 7 -62 7 -31 -1
-46 -7 -63 -27 -26 -29 -31 -87 -12 -129 14 -29 67 -51 101 -41 13 4 31 9 41
11 12 4 17 0 17 -14 0 -31 -28 -46 -84 -46 -93 0 -145 45 -154 132 -5 58 17
115 55 139 44 29 132 33 172 9z m598 -12 c10 -14 14 -14 40 5 26 18 53 25 96
22 10 -1 29 -12 42 -26 24 -23 25 -30 25 -145 l0 -120 -35 0 -35 0 0 108 c0
116 -6 132 -49 132 -51 0 -61 -23 -61 -137 l0 -103 -35 0 -35 0 0 108 c0 117
-6 132 -50 132 -47 0 -59 -25 -62 -135 l-3 -100 -32 -3 -33 -3 0 145 0 146 30
0 c24 0 30 -4 30 -21 0 -20 0 -20 28 -1 15 11 36 22 47 24 28 6 78 -9 92 -28z
m-1847 1 c0 -14 5 -25 10 -25 6 0 10 4 10 10 0 10 52 40 70 40 5 0 10 -16 10
-35 0 -30 -3 -35 -24 -35 -13 0 -33 -8 -45 -17 -18 -16 -21 -31 -23 -108 l-3
-90 -32 -3 -33 -3 0 145 0 146 30 0 c25 0 30 -4 30 -25z m975 -120 l0 -140
-33 0 -33 0 0 138 c0 75 1 140 1 143 0 3 15 4 33 2 l32 -3 0 -140z m395 36 c0
-100 2 -111 21 -124 23 -16 55 -12 82 11 14 13 17 32 17 119 l0 103 35 0 35 0
0 -145 0 -145 -30 0 c-22 0 -33 6 -40 23 -5 12 -9 17 -9 11 -1 -7 -17 -20 -37
-29 -53 -25 -110 -7 -130 40 -14 35 -20 225 -7 238 3 4 19 7 35 7 l28 0 0
-109z m10830 -86 c0 -19 -1 -35 -2 -35 -40 0 -438 -34 -528 -45 -2040 -250
-3852 -1515 -4796 -3350 -410 -797 -629 -1596 -690 -2522 l-7 -103 -37 0 -37
0 4 73 c87 1479 638 2819 1604 3902 941 1055 2216 1771 3594 2019 299 54 626
92 813 95 l82 1 0 -35z m800 20 c920 -81 1807 -358 2597 -811 344 -197 705
-451 981 -691 40 -35 76 -63 81 -63 4 0 16 10 27 21 66 74 431 353 659 504
922 612 1956 967 3045 1045 211 16 223 14 227 -26 l4 -32 -58 -6 c-32 -3 -105
-8 -163 -11 -58 -4 -181 -15 -275 -26 -1155 -136 -2237 -584 -3150 -1305 -110
-86 -249 -204 -253 -213 -1 -3 96 -105 216 -226 300 -302 504 -545 729 -865
527 -752 895 -1654 1047 -2567 39 -235 54 -367 81 -730 l6 -73 -39 0 -39 0 -7
123 c-40 704 -210 1424 -493 2087 -264 617 -621 1180 -1082 1705 -120 137
-469 485 -485 485 -14 0 -407 -394 -509 -511 -390 -444 -743 -987 -982 -1509
-318 -692 -514 -1453 -560 -2175 -3 -49 -8 -116 -11 -147 l-6 -58 -34 0 -34 0
0 58 c0 31 7 136 15 232 99 1142 497 2223 1161 3151 215 301 392 508 681 798
117 118 213 217 213 221 0 3 -57 53 -126 111 -860 710 -1863 1174 -2939 1359
-183 32 -452 65 -605 75 -52 3 -121 8 -152 11 l-58 6 0 34 0 34 58 0 c31 0
136 -7 232 -15z m-6820 -6614 c0 -16 7 -114 15 -218 35 -432 108 -835 225
-1243 250 -869 698 -1688 1306 -2388 148 -170 400 -423 564 -566 69 -60 140
-122 158 -138 17 -16 32 -24 32 -18 0 5 23 10 50 10 l50 0 0 -49 c0 -49 0 -49
69 -100 38 -28 71 -51 75 -51 3 0 6 27 6 60 l0 60 -35 0 c-34 0 -35 1 -35 39
0 37 2 40 33 43 31 3 32 4 38 61 4 34 14 66 24 77 21 23 74 40 126 40 32 0 37
-4 42 -27 7 -40 -2 -53 -37 -53 -42 0 -56 -16 -56 -62 l0 -38 45 0 c25 0 46
-4 46 -10 1 -5 1 -19 1 -30 0 -11 0 -24 -1 -30 0 -5 -21 -10 -46 -10 l-45 0 0
-102 0 -103 84 -57 c47 -32 87 -58 90 -58 3 0 6 90 6 200 l0 200 50 0 50 0 2
-237 3 -238 120 -72 c154 -93 428 -238 592 -313 139 -63 348 -150 362 -150 5
0 16 19 24 43 l14 42 62 0 63 0 31 -85 32 -85 85 -28 c47 -15 153 -48 235 -71
l150 -44 3 159 2 159 235 0 235 0 0 -45 0 -45 -180 0 -181 0 3 -97 3 -98 168
-3 168 -2 -3 -43 -3 -42 -75 -5 -75 -5 120 -23 c66 -12 128 -22 138 -22 15 0
17 13 17 125 l0 125 40 0 c22 0 43 1 48 3 4 1 8 -10 10 -26 l3 -27 36 27 c46
35 142 44 197 18 61 -29 80 -73 84 -197 l4 -106 44 -4 43 -3 0 66 c0 94 16
144 62 194 49 53 92 69 169 63 44 -3 67 -11 94 -32 l36 -27 0 25 c0 29 8 33
61 28 l39 -4 0 -252 c0 -138 -5 -267 -10 -286 -12 -43 -61 -93 -112 -114 -52
-22 -162 -20 -214 3 -42 19 -86 68 -99 109 -6 21 -3 22 41 22 41 0 51 -4 74
-31 21 -26 35 -32 76 -36 61 -6 116 16 133 53 6 14 11 45 11 71 l0 45 -34 -30
c-71 -62 -205 -47 -273 32 -17 19 -33 26 -60 26 -21 0 -48 3 -60 6 -22 6 -23
4 -23 -55 l0 -61 -50 0 -50 0 0 63 0 63 -110 15 -109 14 -3 -75 -3 -75 -47 -3
-47 -3 -3 83 c-4 97 27 80 -244 132 -99 19 -187 36 -195 38 -11 2 -14 -13 -14
-75 l0 -78 175 -2 175 -2 3 -48 3 -47 -233 2 -233 3 -3 141 -3 140 -72 19
c-70 17 -305 87 -340 101 -11 4 -17 1 -17 -7 0 -8 31 -97 70 -199 38 -102 70
-189 70 -193 0 -4 -26 -7 -57 -5 l-57 3 -25 72 -26 73 -146 0 -147 0 -10 -27
c-6 -16 -18 -49 -28 -75 l-17 -48 -54 0 c-49 0 -54 2 -48 18 4 9 17 46 30 82
13 36 50 138 84 228 34 89 61 168 61 175 0 7 -48 33 -107 57 -383 156 -806
381 -1122 596 -51 35 -95 64 -97 64 -2 0 -4 -27 -4 -60 l0 -60 -50 0 -50 0 0
98 0 97 -69 52 c-38 28 -72 48 -75 45 -3 -3 -6 -70 -6 -149 l0 -143 -50 0 -50
0 0 193 0 193 -44 37 c-25 20 -47 37 -49 37 -3 0 -7 -9 -10 -20 -4 -16 -14
-20 -51 -20 l-46 0 0 -159 c0 -174 1 -177 60 -183 33 -3 35 -5 38 -42 l3 -39
-76 5 c-120 8 -119 7 -123 233 l-3 185 -35 0 c-33 0 -34 1 -34 40 0 39 1 40
35 40 l35 0 0 68 0 67 -218 220 c-219 222 -332 347 -478 530 -779 976 -1251
2155 -1358 3390 -21 236 -24 303 -18 310 3 3 20 5 39 5 30 0 33 -3 33 -29z
m8414 -43 c3 -40 11 -134 17 -208 53 -658 215 -1314 479 -1931 253 -590 565
-1094 999 -1609 113 -134 549 -580 567 -580 16 0 344 328 475 475 787 885
1299 1945 1499 3099 42 247 58 380 86 744 l6 82 34 0 34 0 0 -67 c0 -97 -27
-379 -56 -583 -172 -1222 -705 -2374 -1528 -3305 -69 -77 -206 -221 -305 -319
-100 -99 -180 -182 -179 -186 2 -4 47 -44 101 -90 88 -73 99 -80 104 -61 4 18
13 21 54 21 46 0 49 -2 49 -25 0 -14 5 -25 10 -25 6 0 10 4 10 9 0 5 21 19 46
31 56 27 140 24 181 -6 62 -46 68 -64 71 -210 l4 -135 66 -43 c476 -308 924
-526 1446 -702 87 -30 160 -54 162 -54 2 0 4 14 4 30 0 28 2 30 40 30 22 0 43
1 48 3 4 1 8 -10 10 -25 4 -32 14 -35 33 -11 38 45 159 58 216 23 40 -24 59
-53 72 -109 5 -24 13 -47 18 -52 5 -5 51 -17 103 -28 92 -20 98 -20 202 -3
l108 17 0 35 c-1 58 -39 90 -107 90 -48 0 -81 -22 -99 -66 -13 -30 -18 -34
-54 -34 -47 0 -55 10 -40 55 42 126 262 166 357 63 32 -34 42 -70 44 -148 1
-38 7 -74 13 -79 6 -4 32 -11 59 -13 l47 -6 0 234 0 234 50 0 50 0 0 -234 c0
-134 4 -237 9 -241 5 -3 72 -10 148 -15 281 -21 263 -18 263 -51 0 -19 -6 -32
-17 -36 -13 -5 -339 12 -388 20 -6 1 -11 -25 -13 -61 l-3 -63 -47 3 -47 3 -3
66 -3 67 -51 6 c-28 4 -54 3 -59 -1 -4 -4 -4 -36 0 -71 4 -34 5 -64 3 -67 -3
-3 -25 -5 -49 -5 -41 0 -43 1 -43 30 0 36 -2 37 -33 6 -73 -73 -258 -52 -302
34 -17 33 -20 116 -5 125 24 15 6 31 -45 41 l-54 10 -3 -121 -3 -120 -47 -3
-48 -3 0 135 0 135 -42 11 c-24 7 -73 20 -110 30 -36 10 -69 16 -72 12 -3 -3
-6 -77 -6 -164 l0 -159 -47 3 -48 3 -5 179 -5 178 -57 18 c-32 10 -58 17 -58
16 0 0 7 -23 15 -50 66 -218 -101 -406 -306 -344 -49 14 -114 69 -138 117 -64
124 -18 306 90 362 l42 21 -124 49 c-103 41 -125 46 -132 34 -5 -10 -24 -15
-52 -15 -44 0 -45 1 -45 33 0 17 -4 37 -8 42 -4 6 -54 32 -112 59 -195 90
-460 237 -670 370 -57 36 -107 66 -112 66 -4 0 -8 -9 -8 -20 0 -17 -7 -20 -50
-20 l-50 0 0 59 0 59 -106 76 c-58 42 -107 76 -110 76 -2 0 -4 -61 -4 -135 l0
-135 -50 0 -50 0 0 173 c0 94 -4 177 -8 183 -4 6 -65 59 -135 118 -140 118
-126 113 -189 63 -26 -20 -23 -24 27 -30 132 -19 204 -110 205 -261 0 -61 -5
-90 -21 -123 -72 -148 -272 -180 -391 -62 -54 54 -72 104 -71 197 0 34 -1 62
-3 62 -2 0 -24 -14 -49 -32 l-45 -32 0 -128 0 -128 -50 0 -50 0 0 85 c0 47 -3
85 -7 85 -5 0 -37 -20 -72 -45 -36 -25 -57 -45 -48 -45 13 0 17 -9 17 -41 l0
-42 -71 5 -72 6 -116 -73 c-154 -95 -378 -220 -526 -292 l-119 -58 100 -6
c163 -10 223 -49 245 -162 21 -101 -24 -193 -110 -230 -14 -6 -82 -13 -151
-16 l-125 -6 -3 -133 -3 -133 -52 3 -52 3 -3 309 c-2 243 -5 306 -15 299 -6
-6 -71 -34 -144 -63 l-132 -53 -3 -46 -3 -46 -56 -5 c-31 -3 -63 -11 -72 -19
-28 -23 -37 -80 -37 -233 l0 -148 -50 0 -50 0 0 200 c0 110 -1 200 -3 200 -2
0 -27 -7 -56 -16 -42 -12 -51 -19 -46 -32 4 -9 9 -41 12 -69 l6 -53 -192 0
c-186 0 -191 -1 -191 -20 0 -35 39 -99 70 -115 60 -31 165 -12 190 35 8 16 21
20 60 20 28 0 50 -3 50 -7 0 -19 -48 -84 -78 -106 -76 -57 -198 -61 -281 -10
-54 34 -100 103 -108 163 -7 48 -19 56 -65 42 -18 -5 -107 -22 -198 -38 -91
-15 -167 -29 -169 -31 -10 -7 26 -56 51 -69 59 -31 176 -6 194 41 4 11 21 15
56 15 47 0 49 -1 42 -22 -12 -39 -48 -79 -94 -106 -39 -23 -56 -27 -125 -27
-70 0 -86 4 -129 29 -31 18 -59 46 -79 78 -28 45 -34 49 -60 44 -16 -3 -38 -6
-48 -6 -17 0 -19 -8 -19 -70 l0 -70 -50 0 -50 0 0 66 c0 53 -3 65 -14 61 -8
-3 -57 -9 -110 -13 l-95 -7 -3 -51 -3 -51 -47 -3 -47 -3 -3 48 c-3 48 -3 48
-40 51 -36 3 -38 5 -38 37 0 32 2 34 38 37 l37 3 3 162 2 163 40 0 c22 0 43 1
47 3 4 1 10 -11 13 -27 5 -27 6 -28 20 -11 37 44 151 60 216 29 57 -27 78 -74
82 -187 4 -81 7 -97 19 -93 8 3 25 6 38 6 20 0 23 6 30 57 18 149 111 233 256
233 100 -1 187 -64 211 -156 11 -38 16 -44 33 -40 11 3 28 6 37 6 10 0 21 14
29 37 45 138 244 200 365 114 l47 -32 64 17 c36 10 71 23 78 31 8 7 23 13 34
13 57 0 448 156 716 285 208 100 356 180 542 293 l142 87 1 177 0 177 -37 3
c-36 3 -38 5 -41 40 -3 36 -2 37 35 40 l38 3 3 63 3 62 49 0 50 0 0 -65 0 -65
45 0 45 0 0 -40 0 -40 -45 0 -45 0 0 -140 c0 -77 3 -140 6 -140 3 0 48 30 100
66 l94 65 0 115 0 114 50 0 50 0 0 -76 c0 -73 0 -75 20 -61 51 36 320 262 320
269 0 4 -70 76 -156 160 -971 947 -1604 2150 -1833 3488 -42 243 -81 609 -81
756 l0 54 34 0 34 0 6 -72z m-7580 -4348 c79 -30 141 -100 162 -185 6 -24 4
-25 -42 -25 -48 0 -49 1 -76 49 -68 123 -245 121 -323 -4 -29 -46 -30 -54 -30
-159 0 -97 3 -117 24 -160 45 -91 158 -132 254 -92 38 15 84 66 93 102 6 22
11 24 60 24 l54 0 -19 -49 c-42 -112 -120 -169 -245 -178 -142 -11 -244 45
-303 165 -23 48 -28 72 -31 158 -5 118 11 188 58 252 78 109 231 151 364 102z
m5802 5 c65 -19 126 -72 158 -137 36 -73 35 -78 -24 -78 -44 0 -52 3 -59 23
-15 38 -63 89 -98 103 -75 32 -178 5 -226 -58 -29 -37 -57 -131 -57 -188 0
-59 29 -153 58 -189 40 -49 87 -71 152 -71 75 0 127 30 160 93 24 46 26 47 73
47 55 0 58 -8 26 -75 -29 -62 -96 -120 -160 -139 -168 -50 -331 21 -387 169
-61 159 -26 347 82 442 77 68 194 90 302 58z m-4236 -50 l0 -55 -50 0 -50 0 0
48 c0 27 3 52 7 55 3 4 26 7 50 7 l43 0 0 -55z m530 0 l0 -55 -50 0 -50 0 0
55 0 55 50 0 50 0 0 -55z m3010 15 c0 -38 -2 -40 -29 -40 -52 0 -61 -8 -61
-56 l0 -44 45 0 45 0 0 -40 0 -40 -45 0 -45 0 0 -210 0 -210 -50 0 -50 0 0
210 0 210 -35 0 c-29 0 -36 4 -41 25 -9 37 1 53 38 57 32 3 33 4 39 61 10 90
38 112 147 116 l42 1 0 -40z m3040 -300 l0 -340 -50 0 -50 0 0 340 0 340 50 0
50 0 0 -340z m1090 285 l0 -55 -50 0 -50 0 0 55 0 55 50 0 50 0 0 -55z m-5850
-60 l0 -65 45 0 c50 0 62 -13 51 -55 -6 -22 -12 -25 -51 -25 l-45 0 0 -159 c0
-174 1 -177 60 -183 33 -3 35 -5 35 -38 0 -35 -1 -35 -47 -38 -69 -4 -122 13
-136 43 -8 17 -12 89 -12 200 l0 174 -37 3 c-36 3 -38 5 -41 40 -3 36 -2 37
35 40 l38 3 3 63 3 62 49 0 50 0 0 -65z m-2825 -66 c52 -14 126 -90 143 -145
6 -23 12 -62 12 -88 l0 -46 -184 0 c-102 0 -187 -4 -190 -8 -8 -14 31 -88 59
-110 58 -46 156 -37 197 18 18 25 29 30 65 30 34 0 43 -4 43 -17 0 -29 -48
-88 -93 -114 -35 -20 -55 -24 -127 -24 -72 0 -92 4 -128 25 -81 46 -132 164
-118 273 21 157 165 249 321 206z m1938 0 c21 -5 54 -24 74 -42 36 -31 76
-104 67 -119 -3 -4 -25 -8 -49 -8 -35 0 -45 4 -50 20 -12 37 -63 70 -110 70
-98 0 -140 -52 -140 -171 0 -66 4 -81 27 -117 54 -81 165 -80 217 1 21 32 29
37 62 37 21 0 40 -4 44 -10 11 -17 -21 -75 -63 -112 -84 -76 -225 -79 -308 -6
-60 53 -79 100 -79 203 0 76 4 97 25 139 52 101 166 148 283 115z m579 -21
c56 -43 66 -85 71 -295 l4 -183 -43 0 c-37 0 -43 3 -48 26 -6 24 -8 25 -24 11
-47 -43 -146 -59 -221 -37 -70 20 -118 94 -104 162 14 68 99 116 253 140 l82
13 -5 39 c-7 52 -35 77 -88 83 -56 5 -89 -12 -112 -60 -17 -34 -22 -37 -63
-37 -48 0 -52 7 -33 57 29 78 101 115 215 111 70 -3 85 -7 116 -30z m836 -5
c58 -35 100 -112 109 -196 l6 -57 -192 0 c-186 0 -191 -1 -191 -20 0 -30 26
-75 56 -99 57 -45 155 -35 196 19 19 26 28 30 70 30 26 0 48 -4 48 -8 0 -4
-14 -29 -30 -56 -67 -105 -239 -130 -347 -50 -47 35 -71 74 -89 144 -28 108 8
224 87 282 76 57 196 61 277 11z m759 1 c29 -18 59 -49 78 -78 25 -42 31 -62
34 -128 5 -129 -37 -209 -134 -254 -90 -43 -198 -29 -267 34 -58 53 -81 110
-81 202 0 120 40 189 138 237 70 34 165 28 232 -13z m1707 24 c24 -7 61 -32
88 -58 83 -80 100 -209 43 -325 -89 -183 -371 -162 -441 32 -7 21 -13 69 -14
106 -1 183 150 297 324 245z m580 -2 c18 -7 41 -26 52 -41 l20 -27 32 30 c42
40 92 55 154 50 60 -6 96 -31 123 -84 18 -34 20 -63 23 -231 l4 -193 -51 0
-51 0 0 163 c0 198 -8 233 -58 254 -50 21 -106 4 -132 -40 -18 -28 -20 -51
-20 -204 l0 -173 -49 0 -49 0 -4 183 c-3 202 -8 219 -65 238 -67 22 -122 -11
-142 -86 -6 -22 -11 -107 -11 -188 l0 -148 -47 3 -48 3 -3 248 -2 247 50 0
c47 0 50 -2 50 -25 0 -29 7 -31 29 -11 50 45 131 59 195 32z m861 -5 c46 -20
88 -66 112 -120 21 -48 22 -193 1 -241 -37 -86 -114 -140 -198 -140 -51 0
-123 29 -139 57 -12 21 -11 26 -14 -102 l-2 -100 -47 -3 -48 -3 0 330 0 331
50 0 c50 0 50 0 50 -32 l0 -32 21 23 c48 52 141 65 214 32z m771 -5 c81 -38
134 -127 134 -228 l0 -38 -190 0 c-213 0 -207 2 -170 -70 24 -46 54 -69 104
-77 48 -7 119 20 136 52 11 21 21 25 62 25 54 0 58 -8 29 -56 -59 -97 -203
-133 -317 -80 -87 40 -136 129 -136 243 -1 188 181 307 348 229z m-7676 -26
c5 -33 6 -34 17 -14 15 27 72 54 112 54 31 0 31 -1 31 -50 l0 -50 -46 0 c-99
0 -114 -32 -114 -245 l0 -155 -50 0 -50 0 0 251 0 250 48 -3 c45 -3 47 -4 52
-38z m1782 -886 c60 -19 132 -83 163 -145 61 -120 49 -322 -25 -416 l-20 -26
35 -38 c19 -22 35 -43 35 -47 0 -5 -13 -20 -28 -35 l-28 -27 -42 43 -43 44
-52 -18 c-181 -63 -364 34 -412 218 -46 176 19 364 148 427 95 47 167 52 269
20z m-2338 -34 c0 -33 -2 -35 -36 -38 -45 -4 -60 -21 -56 -63 3 -31 5 -32 46
-33 23 -1 42 -5 42 -9 0 -4 0 -20 0 -37 0 -29 -2 -30 -45 -30 l-45 0 0 -215 0
-215 -50 0 -50 0 0 215 0 215 -35 0 c-33 0 -35 2 -35 35 0 30 3 35 23 35 36 0
44 12 49 68 8 83 45 113 137 109 l55 -2 0 -35z m718 -77 c0 -62 4 -113 8 -113
4 0 14 7 21 17 37 44 157 58 219 25 65 -36 75 -71 78 -294 l3 -198 -50 0 -50
0 -3 191 -3 191 -29 25 c-25 21 -37 24 -78 21 -97 -10 -118 -59 -116 -278 l1
-145 -49 0 -49 0 -2 329 c-2 180 0 333 3 338 3 5 26 8 51 6 l46 -3 -1 -112z
m4566 65 l-3 -53 -47 -3 -48 -3 0 55 0 56 51 0 50 0 -3 -52z m4002 12 c0 -40
0 -40 -39 -40 -47 0 -63 -18 -59 -62 3 -32 4 -33 48 -33 45 0 45 0 48 -37 l3
-38 -50 0 -51 0 0 -216 0 -215 -47 3 -48 3 -3 213 -2 212 -36 0 c-35 0 -35 1
-32 38 3 34 6 37 33 37 28 0 30 3 37 53 5 29 13 62 19 74 15 28 65 47 127 48
l52 0 0 -40z m-8860 -69 c0 -50 3 -61 19 -66 10 -3 23 -5 27 -4 34 6 44 -2 44
-36 0 -35 0 -35 -45 -35 l-45 0 0 -165 c0 -152 1 -165 19 -175 11 -5 31 -10
45 -10 24 0 26 -4 26 -41 l0 -42 -72 6 c-62 5 -76 10 -95 32 -22 25 -23 34
-23 211 l0 184 -41 0 -40 0 3 38 c3 35 5 37 38 37 l35 0 3 63 3 62 49 0 50 0
0 -59z m-874 -85 c88 -41 133 -121 134 -237 0 -54 -6 -77 -30 -125 -111 -222
-435 -154 -457 97 -11 118 35 214 126 261 71 37 153 38 227 4z m1908 13 c82
-23 156 -134 156 -236 l0 -33 -190 0 c-185 0 -190 -1 -190 -20 0 -36 39 -99
72 -116 22 -12 48 -15 91 -12 53 4 64 8 87 36 23 28 33 32 73 32 26 0 47 -4
47 -8 0 -4 -13 -29 -29 -54 -41 -65 -102 -93 -201 -93 -64 0 -82 4 -123 28
-152 89 -164 335 -22 443 19 14 46 29 62 34 40 12 122 12 167 -1z m3821 -245
l0 -249 -47 -3 -48 -3 0 249 c0 137 2 251 4 253 2 2 24 3 48 3 l43 -1 0 -249z
m3165 195 l0 -49 -53 0 c-45 0 -58 -4 -78 -26 -23 -24 -24 -33 -29 -197 l-5
-172 -47 -3 -48 -3 0 251 0 251 48 -3 c42 -3 47 -6 49 -28 0 -14 1 -29 2 -35
1 -5 8 1 17 13 8 12 25 27 37 34 25 13 88 27 100 21 4 -2 7 -26 7 -54z m361
50 c55 -17 108 -65 135 -123 35 -74 34 -183 -2 -254 -101 -203 -408 -160 -454
64 -27 130 28 255 135 305 46 21 129 25 186 8z m865 -8 c75 -34 122 -108 140
-218 l7 -43 -197 0 c-150 0 -196 -3 -196 -12 1 -27 39 -96 65 -116 21 -17 41
-22 86 -22 53 0 63 3 98 35 32 29 46 35 85 35 l46 0 -19 -39 c-56 -110 -209
-153 -328 -93 -137 70 -177 277 -78 407 59 77 197 109 291 66z m509 0 c38 -17
95 -72 95 -91 0 -5 3 -15 6 -24 5 -13 -2 -16 -45 -16 -29 0 -51 5 -51 10 0 6
-11 22 -25 35 -53 54 -200 18 -180 -44 8 -27 48 -45 145 -66 129 -27 177 -74
167 -164 -4 -37 -13 -52 -45 -82 -115 -108 -341 -59 -368 80 -6 31 -6 31 39
31 41 0 47 -3 66 -35 25 -43 61 -58 124 -52 56 5 87 29 87 68 0 39 -29 55
-147 84 -84 21 -103 30 -130 60 -38 40 -44 94 -18 145 37 71 187 104 280 61z
m495 -3 c46 -24 90 -77 90 -109 0 -16 -8 -19 -44 -19 -36 0 -46 4 -51 20 -20
64 -185 68 -201 5 -9 -38 18 -62 85 -75 151 -30 214 -67 227 -135 29 -155
-207 -247 -355 -137 -32 24 -75 98 -65 114 3 4 25 8 50 8 37 0 46 -4 53 -22
20 -52 82 -78 156 -64 68 13 86 90 27 120 -15 7 -63 21 -106 30 -125 26 -171
65 -171 147 0 81 82 139 195 139 48 0 78 -6 110 -22z m305 -234 l0 -249 -44
-3 c-24 -2 -47 1 -50 6 -3 6 -5 118 -3 250 l3 241 37 4 c20 2 42 3 47 2 6 -1
10 -92 10 -251z m-7694 -685 c75 -32 149 -127 149 -190 0 -16 -8 -19 -48 -19
-46 0 -49 2 -60 34 -26 72 -124 125 -201 111 -110 -21 -171 -114 -171 -260 0
-177 105 -288 244 -256 64 15 100 42 126 96 21 44 23 45 71 45 27 0 49 -4 49
-9 0 -24 -42 -104 -74 -139 -50 -55 -123 -85 -211 -85 -136 -1 -229 55 -283
171 -25 52 -27 68 -27 177 0 104 3 127 23 170 72 157 251 223 413 154z m-3581
-34 l0 -45 -105 0 -105 0 0 -290 0 -290 -55 0 -55 0 0 290 0 289 -107 3 -108
3 -3 43 -3 42 270 0 271 0 0 -45z m940 -5 c0 -44 -3 -50 -24 -56 -13 -3 -35
-4 -47 -2 -21 3 -24 9 -27 56 l-3 52 50 0 51 0 0 -50z m768 -2 l-3 -53 -45 0
-45 0 -3 53 -3 52 51 0 51 0 -3 -52z m-1092 -127 c85 -39 103 -93 107 -334 l2
-158 -45 3 c-38 3 -45 7 -48 25 l-3 23 -33 -25 c-18 -14 -58 -30 -88 -36 -144
-29 -260 73 -216 189 24 63 93 96 257 122 l73 12 -6 37 c-8 52 -45 81 -105 81
-55 0 -98 -26 -103 -63 -2 -18 -10 -23 -42 -25 -62 -5 -69 1 -51 45 21 50 63
91 111 108 55 20 141 18 190 -4z m798 -9 c63 -37 71 -65 74 -284 l4 -198 -51
0 -50 0 -3 184 c-3 179 -4 185 -27 210 -35 37 -107 37 -150 0 -42 -35 -51 -77
-51 -246 l0 -148 -50 0 -50 0 2 248 3 247 48 3 47 3 0 -37 0 -38 33 31 c56 54
152 65 221 25z m771 0 c16 -10 38 -33 50 -52 18 -31 20 -55 23 -232 l4 -198
-51 0 -51 0 0 169 c0 174 -8 224 -40 241 -28 15 -103 12 -128 -6 -45 -32 -52
-62 -52 -239 l0 -165 -50 0 -50 0 0 251 0 250 47 -3 c44 -3 48 -5 53 -32 5
-27 6 -28 19 -12 45 55 156 68 226 28z m460 6 c11 -6 30 -20 43 -31 l22 -20 0
31 c0 32 1 32 50 32 l50 0 0 -247 c0 -256 -6 -305 -42 -356 -61 -85 -252 -103
-338 -31 -30 26 -60 72 -60 94 0 5 20 10 45 10 38 0 50 -5 73 -31 19 -21 39
-32 68 -36 92 -12 154 39 154 125 l0 43 -37 -28 c-30 -23 -48 -28 -107 -31
-59 -2 -78 1 -111 20 -102 60 -141 216 -88 351 20 49 85 104 137 116 44 10
109 5 141 -11z m1510 -7 c88 -39 135 -122 135 -237 0 -77 -21 -139 -63 -182
-118 -123 -321 -95 -396 53 -36 73 -35 189 2 262 60 116 195 160 322 104z
m1400 -6 c34 -19 85 -85 85 -109 0 -3 -20 -6 -44 -6 -36 0 -50 6 -74 30 -27
27 -37 30 -89 30 -69 0 -95 -15 -95 -55 0 -38 16 -48 114 -69 141 -31 188 -65
195 -143 16 -181 -297 -235 -398 -69 -32 52 -26 66 29 66 43 0 48 -3 61 -31
36 -81 211 -73 211 10 0 41 -29 61 -122 82 -109 25 -134 36 -163 71 -48 57
-24 157 45 193 75 39 177 39 245 0z m466 24 c95 -21 161 -104 175 -222 l7 -57
-192 0 c-211 0 -205 2 -177 -63 23 -54 59 -80 119 -85 59 -5 109 14 127 48 8
16 21 20 60 20 28 0 50 -2 50 -5 0 -15 -31 -63 -57 -86 -49 -46 -93 -63 -164
-63 -114 0 -203 60 -237 163 -15 41 -16 144 -2 190 27 94 114 159 227 170 7 0
35 -4 64 -10z m-5931 -38 l5 -33 20 22 c24 27 74 50 110 50 23 0 25 -3 25 -50
l0 -50 -34 0 c-56 0 -93 -18 -110 -55 -13 -26 -16 -68 -16 -189 l0 -156 -50 0
-50 0 0 243 c0 134 3 247 7 251 4 4 25 6 48 4 37 -3 40 -5 45 -37z m848 -213
l2 -248 -50 0 -50 0 0 251 0 250 48 -3 47 -3 3 -247z m772 2 l0 -250 -50 0
-50 0 0 250 0 250 50 0 50 0 0 -250z m2772 61 c3 -185 4 -190 27 -215 19 -21
34 -26 71 -26 26 0 55 7 69 16 43 30 51 71 51 249 l0 165 50 0 50 0 0 -250 0
-250 -50 0 c-48 0 -50 1 -50 27 l0 26 -22 -20 c-38 -34 -70 -46 -128 -47 -67
-1 -115 24 -145 74 -18 31 -20 56 -24 238 l-3 202 50 0 50 0 4 -189z m538 144
c5 -39 6 -39 18 -17 16 28 85 61 125 62 28 0 28 -1 25 -52 -3 -53 -3 -53 -34
-50 -42 4 -99 -21 -115 -50 -9 -15 -15 -77 -17 -185 l-4 -163 -49 0 -49 0 0
243 c0 134 3 247 7 251 4 4 25 6 48 4 39 -3 40 -4 45 -43z m-13190 -333 c14
-44 28 -83 31 -87 4 -3 19 35 34 85 27 86 29 90 57 90 l28 0 0 -120 c0 -100
-2 -120 -15 -120 -12 0 -15 18 -16 103 l-1 102 -35 -103 c-44 -130 -55 -131
-99 -2 l-32 95 -1 -97 c-1 -80 -4 -98 -16 -98 -12 0 -15 20 -15 118 0 65 3
121 6 125 3 3 16 2 27 -2 17 -6 28 -29 47 -89z m347 -13 c21 -41 16 -78 -16
-110 -59 -59 -141 -18 -141 70 0 35 33 78 63 83 33 6 80 -15 94 -43z m161 29
c14 -12 16 -38 3 -38 -5 0 -14 7 -21 16 -17 20 -64 14 -68 -8 -2 -12 8 -20 37
-28 69 -18 88 -53 51 -90 -29 -29 -75 -26 -108 7 -25 25 -25 28 -8 31 10 2 23
-3 28 -12 10 -18 63 -22 73 -6 10 16 -12 37 -47 44 -41 8 -58 23 -58 51 0 47
74 68 118 33z m185 -6 c18 -16 23 -42 9 -42 -5 0 -17 9 -27 20 -24 26 -50 25
-69 -2 -18 -26 -20 -61 -6 -89 13 -24 65 -26 78 -3 5 9 18 14 28 12 17 -3 17
-6 -8 -31 -57 -57 -138 -19 -138 66 0 79 75 118 133 69z m197 -10 c47 -60 5
-152 -69 -152 -29 0 -69 37 -76 71 -20 91 89 152 145 81z m80 -14 c19 -74 22
-76 40 -18 24 76 44 77 66 3 l17 -58 13 30 c7 17 13 40 14 53 0 20 24 41 35
31 8 -9 -49 -179 -61 -179 -6 0 -20 29 -29 65 -10 36 -21 63 -24 59 -3 -3 -13
-31 -21 -62 -8 -30 -20 -57 -27 -59 -7 -3 -22 27 -37 79 -30 98 -30 98 -11 98
8 0 19 -17 25 -42z"/>
<path d="M1167 15233 c-2 -5 -19 -53 -37 -108 -18 -55 -36 -104 -40 -108 -4
-5 -20 27 -34 71 -31 91 -46 116 -68 111 -13 -3 -9 -21 24 -109 32 -83 42
-124 47 -195 5 -75 9 -90 24 -93 15 -3 17 5 17 58 0 49 11 94 50 207 28 80 50
151 50 159 0 15 -26 20 -33 7z"/>
<path d="M1664 15136 c-3 -7 -4 -42 -2 -77 l3 -64 41 -3 c57 -4 94 26 94 76 0
20 -4 42 -8 49 -19 30 -118 45 -128 19z"/>
<path d="M2188 14919 c-21 -12 -24 -49 -6 -67 32 -32 98 1 98 49 0 27 -3 29
-37 29 -21 0 -46 -5 -55 -11z"/>
<path d="M10260 3765 c0 -20 5 -25 25 -25 31 0 31 10 0 33 -25 18 -25 18 -25
-8z"/>
<path d="M12235 2611 c-8 -14 -75 -209 -75 -221 0 -10 202 -15 212 -5 3 3 -11
51 -31 107 -33 90 -41 103 -69 115 -17 7 -33 9 -37 4z"/>
<path d="M13603 2560 c-38 -15 -63 -68 -63 -132 0 -65 -10 -60 138 -76 58 -7
75 -6 79 5 3 7 3 47 1 89 -3 69 -6 79 -31 100 -30 25 -81 31 -124 14z"/>
<path d="M14118 2554 c-49 -26 -79 -119 -64 -197 6 -34 8 -35 66 -41 l60 -7 0
-34 c0 -19 5 -37 10 -40 19 -12 84 29 105 65 28 48 28 161 0 207 -34 58 -118
80 -177 47z"/>
<path d="M18533 3660 c-43 -10 -62 -27 -84 -75 -26 -57 -25 -140 4 -195 54
-108 190 -104 239 8 24 54 21 147 -6 200 -25 49 -92 76 -153 62z"/>
<path d="M19073 3656 c-39 -18 -52 -52 -26 -71 73 -56 172 -125 178 -125 4 0
5 36 3 80 -2 63 -7 84 -23 99 -27 27 -92 35 -132 17z"/>
<path d="M17070 2615 l0 -115 111 0 c109 0 111 0 140 29 24 25 29 37 29 81 0
97 -35 120 -185 120 l-95 0 0 -115z"/>
<path d="M14933 2560 c-43 -17 -63 -67 -63 -156 l0 -82 43 4 c23 2 73 6 110
10 l69 6 -4 90 c-3 84 -5 91 -31 114 -30 25 -81 31 -124 14z"/>
<path d="M15442 2550 c-29 -18 -62 -71 -62 -100 0 -7 46 -10 138 -8 l137 3 -3
24 c-13 87 -128 131 -210 81z"/>
<path d="M16010 2563 c-23 -8 -60 -45 -60 -59 0 -9 29 -5 101 14 87 23 98 28
83 39 -18 13 -95 17 -124 6z"/>
<path d="M20630 2563 c-24 -9 -61 -46 -77 -78 -23 -43 -21 -154 3 -196 29 -50
64 -71 118 -71 54 0 88 19 117 65 28 45 24 188 -6 229 -34 46 -104 69 -155 51z"/>
<path d="M21178 2559 c-30 -17 -21 -24 55 -43 39 -10 78 -21 85 -23 21 -9 13
27 -13 52 -18 19 -35 25 -67 25 -24 0 -51 -5 -60 -11z"/>
<path d="M16143 2467 c-62 -18 -63 -27 -1 -27 59 0 70 4 61 26 -6 16 -4 16
-60 1z"/>
<path d="M21651 2321 c-28 -28 -27 -56 4 -86 20 -21 34 -25 79 -25 48 0 60 4
91 31 54 48 48 64 -32 78 -38 6 -80 14 -95 17 -18 4 -32 0 -47 -15z"/>
<path d="M9415 3656 c-40 -18 -63 -45 -71 -84 l-6 -32 136 0 c152 0 156 2 116
68 -34 55 -111 76 -175 48z"/>
<path d="M11995 3473 c-11 -2 -44 -9 -73 -14 -29 -6 -65 -21 -82 -36 -80 -67
16 -150 125 -109 53 21 72 48 81 115 7 55 5 57 -51 44z"/>
<path d="M12713 3655 c-34 -15 -58 -45 -68 -87 l-7 -28 136 0 136 0 0 24 c0
13 -9 35 -21 50 -42 54 -111 70 -176 41z"/>
<path d="M13503 3660 c-18 -4 -40 -14 -50 -21 -51 -43 -70 -182 -34 -249 52
-98 175 -106 232 -14 33 53 35 178 3 220 -42 56 -92 78 -151 64z"/>
<path d="M15248 3656 c-69 -25 -106 -102 -95 -197 15 -123 119 -186 208 -126
48 32 69 79 69 157 0 130 -80 203 -182 166z"/>
<path d="M16651 3653 c-51 -27 -76 -82 -76 -168 1 -82 20 -126 68 -155 66 -41
142 -18 176 53 27 56 29 157 3 206 -35 69 -109 97 -171 64z"/>
<path d="M17411 3652 c-33 -18 -71 -71 -71 -99 0 -10 34 -13 140 -13 90 0 140
4 140 10 0 6 -9 28 -20 49 -33 66 -120 90 -189 53z"/>
<path d="M11495 2727 c-45 -21 -92 -80 -110 -139 -40 -135 5 -296 95 -343 44
-23 112 -29 155 -15 l37 12 -27 28 c-31 32 -29 51 10 76 25 16 27 16 53 -10
16 -14 31 -26 34 -26 4 0 15 21 25 48 28 73 24 192 -9 263 -37 81 -82 113
-167 116 -40 2 -78 -2 -96 -10z"/>
<path d="M8734 2554 c-97 -47 -105 -250 -13 -317 36 -26 112 -26 147 0 46 34
65 78 66 152 0 48 -5 78 -20 106 -34 67 -112 93 -180 59z"/>
<path d="M10653 2550 c-32 -19 -63 -66 -63 -95 0 -13 20 -15 134 -15 74 0 137
4 140 8 10 17 -33 91 -63 106 -41 22 -109 20 -148 -4z"/>
<path d="M18010 2548 c-47 -32 -70 -80 -70 -150 0 -112 50 -179 134 -180 92
-2 141 59 141 177 -1 110 -39 162 -128 172 -33 4 -50 0 -77 -19z"/>
<path d="M18844 2551 c-25 -15 -64 -80 -64 -106 0 -3 63 -5 140 -5 130 0 140
1 140 19 0 26 -41 83 -70 98 -37 19 -110 16 -146 -6z"/>
<path d="M9573 1269 c-65 -12 -112 -38 -119 -65 -16 -64 29 -101 113 -91 38 4
54 12 80 41 18 20 33 46 33 58 0 13 3 33 6 46 6 20 3 22 -32 21 -22 -1 -58 -5
-81 -10z"/>
<path d="M11566 1449 c-40 -31 -56 -71 -56 -139 0 -112 44 -170 131 -170 91 0
134 65 127 192 -4 66 -6 72 -41 104 -31 29 -44 34 -86 34 -34 0 -56 -6 -75
-21z"/>
<path d="M13034 1451 c-40 -25 -64 -85 -64 -162 0 -107 53 -169 145 -169 40 0
52 5 80 33 79 79 69 245 -18 297 -41 25 -103 25 -143 1z"/>
<path d="M14936 1449 c-26 -20 -56 -68 -56 -89 0 -11 262 -15 273 -4 11 11
-15 64 -45 89 -40 34 -132 36 -172 4z"/>
<path d="M1126 1158 c-9 -12 -16 -32 -16 -43 0 -31 28 -65 54 -65 33 0 46 19
46 67 0 32 -5 45 -19 53 -30 16 -48 12 -65 -12z"/>
<path d="M1688 1170 c-25 -15 -33 -66 -14 -95 32 -48 96 -20 96 42 0 49 -42
76 -82 53z"/>
</g>
</svg>
